<svg width="28" height="28" viewBox="0 0 28 28" fill="none" xmlns="http://www.w3.org/2000/svg">
<path d="M16.3333 2.33331C18.6666 2.33331 19.8333 3.51165 19.8333 5.86831V14.0933C19.8333 16.415 18.1883 17.3133 16.17 16.1L14.63 15.1666C14.28 14.9566 13.72 14.9566 13.37 15.1666L11.83 16.1C9.81163 17.3133 8.16663 16.415 8.16663 14.0933V5.86831C8.16663 3.51165 9.33329 2.33331 11.6666 2.33331H16.3333Z" stroke="#5B5B71" stroke-width="1.5" stroke-linecap="round" stroke-linejoin="round"/>
<path d="M7.95671 5.82168C3.97837 6.48668 2.33337 8.93668 2.33337 13.8833V17.4183C2.33337 23.31 4.66671 25.6667 10.5 25.6667H17.5C23.3334 25.6667 25.6667 23.31 25.6667 17.4183V13.8833C25.6667 8.85501 23.9634 6.39335 19.8334 5.78668" stroke="#5B5B71" stroke-width="1.5" stroke-linecap="round" stroke-linejoin="round"/>
</svg>
