<svg width="28" height="28" viewBox="0 0 28 28" fill="none" xmlns="http://www.w3.org/2000/svg">
<path d="M23.917 23.3333H4.08364C3.92893 23.3333 3.78056 23.3086 3.67116 23.2648C3.56176 23.221 3.50031 23.1616 3.50031 23.0997V21.7007C3.50031 21.5148 3.68468 21.3366 4.01287 21.2052C4.34106 21.0737 4.78618 20.9999 5.25031 20.9999H22.7503C23.2144 20.9999 23.6596 21.0737 23.9877 21.2052C24.3159 21.3366 24.5003 21.5148 24.5003 21.7007V23.0997C24.5003 23.1616 24.4388 23.221 24.3295 23.2648C24.2201 23.3086 24.0717 23.3333 23.917 23.3333Z" fill="#363636"/>
<g filter="url(#filter0_i_1_1337)">
<path d="M24.5 5.83333C24.0765 5.83357 23.661 5.9491 23.2981 6.16751C22.9352 6.38592 22.6386 6.69899 22.4401 7.07314C22.2416 7.44729 22.1487 7.86841 22.1714 8.29135C22.194 8.71428 22.3313 9.12308 22.5686 9.47391L17.7666 13.5864L14.9561 5.62333C15.4431 5.40456 15.8404 5.02536 16.0816 4.54903C16.3229 4.0727 16.3934 3.52805 16.2816 3.00598C16.1697 2.4839 15.8821 2.01599 15.4669 1.68032C15.0517 1.34465 14.5339 1.16154 14 1.16154C13.4661 1.16154 12.9483 1.34465 12.5331 1.68032C12.1179 2.01599 11.8303 2.4839 11.7185 3.00598C11.6066 3.52805 11.6772 4.0727 11.9184 4.54903C12.1596 5.02536 12.5569 5.40456 13.0439 5.62333L10.2334 13.5864L5.43143 9.47391C5.72322 9.04252 5.86228 8.52591 5.8265 8.00633C5.79071 7.48676 5.58213 6.99409 5.23395 6.60677C4.88578 6.21945 4.41804 5.95975 3.9052 5.86902C3.39235 5.77828 2.8639 5.86173 2.40397 6.10607C1.94404 6.35041 1.57907 6.7416 1.36719 7.21736C1.1553 7.69311 1.10867 8.22608 1.23472 8.7314C1.36077 9.23672 1.65225 9.68535 2.06277 10.0058C2.47328 10.3263 2.97921 10.5003 3.50002 10.5C3.63708 10.4983 3.77373 10.4844 3.90835 10.4586L6.41668 18.7524V21H21.5833V18.7524L24.0917 10.4586C24.412 10.5196 24.7416 10.5128 25.0592 10.4387C25.3767 10.3645 25.6752 10.2246 25.9354 10.0279C26.1955 9.8313 26.4116 9.58232 26.5696 9.29704C26.7276 9.01177 26.8241 8.69654 26.8527 8.37169C26.8814 8.04684 26.8417 7.71959 26.7361 7.41104C26.6305 7.1025 26.4614 6.81951 26.2398 6.58034C26.0181 6.34116 25.7487 6.15111 25.4491 6.02245C25.1494 5.89378 24.8261 5.82936 24.5 5.83333Z" fill="#EEBD32"/>
</g>
<g filter="url(#filter1_i_1_1337)">
<path d="M5.25 20.993H22.75C23.2141 20.993 23.6592 21.1774 23.9874 21.5056C24.3156 21.8338 24.5 22.2789 24.5 22.743V23.3263H3.5V22.743C3.5 22.2789 3.68437 21.8338 4.01256 21.5056C4.34075 21.1774 4.78587 20.993 5.25 20.993Z" fill="#F5CD36"/>
</g>
<path d="M13.9997 5.83333C15.2883 5.83333 16.333 4.78866 16.333 3.5C16.333 2.21133 15.2883 1.16666 13.9997 1.16666C12.711 1.16666 11.6663 2.21133 11.6663 3.5C11.6663 4.78866 12.711 5.83333 13.9997 5.83333Z" fill="#F5CD36"/>
<path d="M24.4997 10.5001C25.7883 10.5001 26.833 9.45541 26.833 8.16675C26.833 6.87808 25.7883 5.83341 24.4997 5.83341C23.211 5.83341 22.1663 6.87808 22.1663 8.16675C22.1663 9.45541 23.211 10.5001 24.4997 10.5001Z" fill="#F5CD36"/>
<path d="M3.49965 10.5001C4.78832 10.5001 5.83299 9.45541 5.83299 8.16675C5.83299 6.87808 4.78832 5.83341 3.49965 5.83341C2.21099 5.83341 1.16632 6.87808 1.16632 8.16675C1.16632 9.45541 2.21099 10.5001 3.49965 10.5001Z" fill="#F5CD36"/>
<defs>
<filter id="filter0_i_1_1337" x="1.16534" y="1.16154" width="25.6965" height="21.8385" filterUnits="userSpaceOnUse" color-interpolation-filters="sRGB">
<feFlood flood-opacity="0" result="BackgroundImageFix"/>
<feBlend mode="normal" in="SourceGraphic" in2="BackgroundImageFix" result="shape"/>
<feColorMatrix in="SourceAlpha" type="matrix" values="0 0 0 0 0 0 0 0 0 0 0 0 0 0 0 0 0 0 127 0" result="hardAlpha"/>
<feOffset dy="2"/>
<feGaussianBlur stdDeviation="6"/>
<feComposite in2="hardAlpha" operator="arithmetic" k2="-1" k3="1"/>
<feColorMatrix type="matrix" values="0 0 0 0 0 0 0 0 0 0 0 0 0 0 0 0 0 0 0.12 0"/>
<feBlend mode="normal" in2="shape" result="effect1_innerShadow_1_1337"/>
</filter>
<filter id="filter1_i_1_1337" x="3.5" y="20.993" width="21" height="4.33333" filterUnits="userSpaceOnUse" color-interpolation-filters="sRGB">
<feFlood flood-opacity="0" result="BackgroundImageFix"/>
<feBlend mode="normal" in="SourceGraphic" in2="BackgroundImageFix" result="shape"/>
<feColorMatrix in="SourceAlpha" type="matrix" values="0 0 0 0 0 0 0 0 0 0 0 0 0 0 0 0 0 0 127 0" result="hardAlpha"/>
<feOffset dy="2"/>
<feGaussianBlur stdDeviation="6"/>
<feComposite in2="hardAlpha" operator="arithmetic" k2="-1" k3="1"/>
<feColorMatrix type="matrix" values="0 0 0 0 1 0 0 0 0 1 0 0 0 0 1 0 0 0 0.33 0"/>
<feBlend mode="normal" in2="shape" result="effect1_innerShadow_1_1337"/>
</filter>
</defs>
</svg>
