<svg width="21" height="73" viewBox="0 0 21 73" fill="none" xmlns="http://www.w3.org/2000/svg">
<path d="M0.460449 37.0171V34.6307C3.69909 34.6117 5.91499 33.9962 7.10818 32.7841C8.3203 31.553 8.92636 29.3371 8.92636 26.1364V13.1818C8.92636 10.928 9.14416 8.97728 9.57977 7.32955C10.0343 5.68182 10.7351 4.31818 11.682 3.23864C12.629 2.14015 13.8506 1.32576 15.3468 0.795456C16.843 0.265153 18.6423 0 20.7445 0V3.06819C18.6991 3.04925 17.0419 3.39962 15.7729 4.11932C14.5229 4.82008 13.6044 5.91856 13.0173 7.41478C12.4491 8.91099 12.165 10.8333 12.165 13.1818V26.9034C12.165 28.6458 11.9756 30.1515 11.5968 31.4205C11.237 32.6894 10.6214 33.7405 9.75022 34.5739C8.87901 35.3883 7.68583 36.0038 6.17068 36.4205C4.65553 36.8182 2.75212 37.0171 0.460449 37.0171ZM20.7445 72.7273C18.6423 72.7273 16.843 72.4621 15.3468 71.9318C13.8506 71.4015 12.629 70.5871 11.682 69.4886C10.7351 68.4091 10.0343 67.0455 9.57977 65.3977C9.14416 63.75 8.92636 61.7992 8.92636 59.5455V46.5909C8.92636 43.3902 8.3203 41.1837 7.10818 39.9716C5.91499 38.7405 3.69909 38.1155 0.460449 38.0966V35.7102C2.75212 35.7292 4.65553 35.947 6.17068 36.3636C7.68583 36.7614 8.87901 37.3674 9.75022 38.1818C10.6214 38.9962 11.237 40.0379 11.5968 41.3068C11.9756 42.5758 12.165 44.0814 12.165 45.8239V59.5455C12.165 61.8939 12.4491 63.8163 13.0173 65.3125C13.6044 66.8087 14.5229 67.9072 15.7729 68.608C17.0419 69.3087 18.6991 69.6591 20.7445 69.6591V72.7273ZM0.460449 38.0966V34.6307H6.79568V38.0966H0.460449Z" fill="#5766F3"/>
</svg>
