<svg width="11" height="36" viewBox="0 0 11 36" fill="none" xmlns="http://www.w3.org/2000/svg">
<path d="M10.6512 18.0458V16.8825C9.07241 16.8732 7.99215 16.5732 7.41048 15.9822C6.81957 15.3821 6.52411 14.3018 6.52411 12.7415V6.42614C6.52411 5.32742 6.41794 4.37642 6.20558 3.57316C5.98399 2.76989 5.64237 2.10511 5.18072 1.57884C4.71907 1.04333 4.12355 0.646308 3.39414 0.387785C2.66474 0.129262 1.78761 0 0.762751 0V1.49574C1.75991 1.48651 2.56779 1.65732 3.1864 2.00817C3.79578 2.34979 4.24358 2.8853 4.5298 3.6147C4.80679 4.34411 4.94528 5.28125 4.94528 6.42614V13.1154C4.94528 13.9648 5.03761 14.6989 5.22227 15.3175C5.39769 15.9361 5.69777 16.4485 6.12248 16.8548C6.5472 17.2518 7.12887 17.5518 7.86751 17.755C8.60615 17.9489 9.53406 18.0458 10.6512 18.0458ZM0.762751 35.4545C1.78761 35.4545 2.66474 35.3253 3.39414 35.0668C4.12355 34.8082 4.71907 34.4112 5.18072 33.8757C5.64237 33.3494 5.98399 32.6847 6.20558 31.8814C6.41794 31.0781 6.52411 30.1271 6.52411 29.0284V22.7131C6.52411 21.1527 6.81957 20.0771 7.41048 19.4862C7.99215 18.886 9.07241 18.5813 10.6512 18.5721V17.4087C9.53406 17.418 8.60615 17.5241 7.86751 17.7273C7.12887 17.9212 6.5472 18.2166 6.12248 18.6136C5.69777 19.0107 5.39769 19.5185 5.22227 20.1371C5.03761 20.7557 4.94528 21.4897 4.94528 22.3391V29.0284C4.94528 30.1733 4.80679 31.1104 4.5298 31.8398C4.24358 32.5693 3.79578 33.1048 3.1864 33.4464C2.56779 33.788 1.75991 33.9588 0.762751 33.9588V35.4545ZM10.6512 18.5721V16.8825H7.56282V18.5721H10.6512Z" fill="#5766F3"/>
</svg>
