<svg width="20" height="22" viewBox="0 0 20 22" fill="none" xmlns="http://www.w3.org/2000/svg">
<g clip-path="url(#clip0_1_1072)">
<path d="M1.78317 19.7747L-0.000732422 0.00115967L19.2174 0.00870672L17.4485 19.7597L9.59334 21.9936L1.78317 19.7747ZM16.0019 18.6955L17.4935 1.75965H9.62332L9.68329 20.4389L16.0019 18.6955ZM8.88878 4.24267H6.97746L6.95497 14.3785L3.24476 13.3597L3.25226 15.6766L8.88878 17.2087V4.24267Z" fill="white"/>
<path opacity="0.986" d="M3.25225 15.6766L3.24475 13.3596C3.24475 13.3596 5.61329 14.0313 6.95496 14.3785L6.97745 4.25018H8.88877V17.2087L3.25225 15.6766Z" fill="#151522"/>
<path d="M9.62329 1.75208H17.4934L16.0019 18.6879L9.62329 20.4313V1.75208ZM15.5971 15.8502L16.1143 9.51811L12.2916 9.9483V6.56717L16.3691 6.55207L16.534 4.24264L10.3803 4.27283L10.4628 12.6804L14.1805 12.0389L14.128 13.9106L10.3803 14.9143L10.4178 17.2087L15.5971 15.8502Z" fill="#F5F5F5"/>
</g>
<defs>
<clipPath id="clip0_1_1072">
<rect width="19.2184" height="22" fill="white"/>
</clipPath>
</defs>
</svg>
