<svg width="22" height="22" viewBox="0 0 22 22" fill="none" xmlns="http://www.w3.org/2000/svg">
<path d="M8.77125 16.9583C5.63777 17.9118 10.6772 19.8815 14.6666 18.0196C14.0132 17.7429 13.5453 17.4235 13.5453 17.4235C11.7657 17.7902 10.9404 17.819 9.32548 17.6184C7.99248 17.4515 8.77125 16.9583 8.77125 16.9583ZM8.09313 15.125C4.25932 16.3978 10.2262 17.8411 15.5833 16.2742C15.0139 16.0734 14.6517 15.7062 14.6517 15.7062C12.0336 16.2104 10.5205 16.1943 8.6046 15.9966C7.12303 15.8433 8.09313 15.125 8.09313 15.125ZM18.8166 18.9375C18.8166 18.9375 19.4521 19.3392 18.1168 19.6499C15.5775 20.24 7.54823 20.4182 5.31772 19.6734C4.51591 19.4058 6.01953 19.0345 6.49251 18.9566C6.98578 18.8745 7.26767 18.8898 7.26767 18.8898C6.37598 18.4079 1.50412 19.836 4.79301 20.245C13.7623 21.3608 21.1431 19.7425 18.8166 18.9375ZM9.34476 12.3784C9.34476 12.3784 5.36524 13.2777 7.93551 13.6042C9.02076 13.7424 11.1842 13.7112 13.1994 13.5505C14.8463 13.4184 16.5 13.1373 16.5 13.1373C16.5 13.1373 15.9192 13.3739 15.4991 13.6469C11.458 14.658 3.65123 14.1876 5.89868 13.1533C7.79936 12.2792 9.34476 12.3784 9.34476 12.3784ZM16.5761 15.9273C16.5586 15.9813 16.5 16.0417 16.5 16.0417C21.5584 14.5077 19.6987 10.6347 17.2806 11.6153C17.0681 11.7023 16.9569 11.9033 16.9569 11.9033C16.9569 11.9033 17.0905 11.841 17.3901 11.7691C18.6124 11.4751 20.3636 13.6569 16.5761 15.9273ZM9.17376 21.9392C13.2696 22.1622 19.5593 21.8154 19.7083 20.1667C19.7083 20.1667 19.422 20.7917 16.3233 21.2881C12.8273 21.8478 8.51562 21.7824 5.95829 21.4237C5.95829 21.4237 6.48181 21.7923 9.17376 21.9392Z" fill="white"/>
<path d="M13.2839 10.87C9.92444 6.54577 16.9583 4.58333 16.9583 4.58333C12.4772 7.48652 13.3049 8.32855 14.3843 10.0232C15.54 11.8405 13.0235 13.2917 13.0235 13.2917C13.0235 13.2917 14.275 12.1447 13.2839 10.87ZM14.0505 0C14.0505 0 16.4518 2.34459 11.773 5.9499C8.02101 8.84198 10.9174 10.491 11.7714 12.375C9.58133 10.4463 7.97411 8.74853 9.05236 7.16837C10.635 4.84883 15.0194 3.72423 14.0505 0Z" fill="white"/>
</svg>
