<svg width="22" height="22" viewBox="0 0 22 22" fill="none" xmlns="http://www.w3.org/2000/svg">
<g clip-path="url(#clip0_1_1103)">
<path fill-rule="evenodd" clip-rule="evenodd" d="M20.2646 17.1368C19.068 17.1035 18.1398 17.2261 17.3617 17.5534C17.1377 17.6434 16.7782 17.6434 16.7487 17.9254C16.8684 18.0437 16.8828 18.2373 16.9878 18.4013C17.1672 18.6989 17.4818 19.0998 17.7658 19.3078L18.7233 19.992C19.3068 20.3486 19.9651 20.5569 20.5335 20.9138C20.8628 21.1221 21.1918 21.3897 21.5211 21.613C21.6888 21.732 21.7904 21.9256 22 21.9996V21.9546C21.8954 21.8213 21.8652 21.628 21.7609 21.4787L21.3115 21.0478C20.8779 20.4679 20.339 19.962 19.7555 19.5461C19.2766 19.2188 18.2296 18.7729 18.0351 18.223L18.0056 18.1896C18.3343 18.1563 18.7233 18.0407 19.0378 17.9514C19.5469 17.818 20.0104 17.8474 20.5335 17.7137L21.2522 17.5054V17.3721C20.9829 17.1045 20.7884 16.7476 20.5043 16.4949C19.7414 15.8407 18.903 15.2012 18.0351 14.6659C17.5713 14.3687 16.9727 14.175 16.4791 13.9227C16.299 13.8334 16.0002 13.7888 15.8956 13.6401C15.6256 13.3135 15.4764 12.8819 15.2819 12.495L14.0552 9.90778C13.7859 9.32788 13.6209 8.74798 13.2922 8.21275C11.7509 5.68486 10.0748 4.15346 7.50135 2.6514C6.94802 2.33912 6.28972 2.20481 5.58984 2.04151L4.46774 1.98152C4.22797 1.87753 3.98886 1.59492 3.77927 1.46094C2.92646 0.925703 0.726883 -0.234091 0.0980961 1.2943C-0.306004 2.2608 0.6967 3.2123 1.03708 3.70321C1.29195 4.04515 1.6206 4.43175 1.80068 4.81835C1.90129 5.07097 1.93483 5.33892 2.03979 5.60654C2.2789 6.26076 2.50358 6.98963 2.81781 7.59952C2.98549 7.9118 3.16155 8.23941 3.37114 8.52169C3.49086 8.68833 3.70046 8.75965 3.74506 9.02727C3.53546 9.32488 3.52104 9.77047 3.40132 10.1427C2.86241 11.8231 3.07201 13.9047 3.83493 15.1418C4.07471 15.5135 4.63978 16.3316 5.4064 16.019C6.07979 15.7514 5.92955 14.9039 6.12406 14.1604C6.16933 13.9821 6.13914 13.8631 6.22868 13.7438V13.7771L6.84238 15.0112C7.30617 15.7397 8.11438 16.4983 8.78743 17.0042C9.14626 17.2718 9.43064 17.7331 9.87934 17.8964V17.8514H9.84983C9.75995 17.7181 9.62514 17.6581 9.50542 17.5541C9.23613 17.2865 8.937 16.9592 8.7274 16.6619C8.09929 15.8294 7.54595 14.9072 7.05198 13.9557C6.8122 13.4948 6.6026 12.9892 6.40877 12.5283C6.31822 12.3497 6.31823 12.0817 6.16899 11.9931C5.94431 12.3197 5.61566 12.603 5.45033 13.0042C5.16595 13.6434 5.13644 14.4316 5.03181 15.2495C4.97145 15.2645 4.99828 15.2495 4.97145 15.2828C4.49323 15.1642 4.32824 14.6729 4.14883 14.257C3.70012 13.2012 3.625 11.5062 4.01401 10.2867C4.11864 9.97443 4.56802 8.99294 4.3886 8.69566C4.29806 8.41304 3.99959 8.24974 3.8346 8.02645C3.64009 7.74383 3.43117 7.38722 3.29636 7.07495C2.93753 6.24176 2.75812 5.32026 2.36877 4.48741C2.18869 4.10081 1.8748 3.69921 1.62026 3.34261C1.33588 2.94101 1.02233 2.6584 0.797642 2.18281C0.722858 2.01618 0.618228 1.75156 0.737949 1.57292C0.76746 1.45394 0.827824 1.40628 0.946874 1.37962C1.14138 1.21299 1.69538 1.42428 1.88989 1.51293C2.44322 1.73623 2.90701 1.94419 3.3708 2.25613C3.5804 2.40477 3.80509 2.68739 4.07438 2.76205H4.38894C4.86782 2.86603 5.40606 2.79537 5.85443 2.92868C6.64754 3.18197 7.36553 3.55324 8.00941 3.95517C9.96921 5.18928 11.5856 6.94397 12.6775 9.04093C12.8569 9.38287 12.9317 9.69515 13.0967 10.0521C13.4113 10.781 13.8003 11.5242 14.1138 12.2384C14.4284 12.9372 14.7275 13.6514 15.1762 14.2313C15.4009 14.5436 16.2983 14.7069 16.7021 14.8706C17.0016 15.0039 17.465 15.1239 17.735 15.2872C18.2434 15.5994 18.7521 15.9564 19.2307 16.2983C19.4698 16.4763 20.2183 16.8482 20.2629 17.1448L20.2646 17.1368ZM5.00599 4.21512C4.79926 4.2133 4.59318 4.23829 4.39296 4.28944V4.32277H4.42247C4.54219 4.56073 4.75179 4.72436 4.90136 4.93266L5.24576 5.64653L5.27527 5.6132C5.48487 5.46456 5.58984 5.22661 5.58984 4.87C5.49996 4.76602 5.48521 4.66171 5.41042 4.55773C5.32055 4.40909 5.12604 4.33443 5.00599 4.21579V4.21512Z" fill="white"/>
</g>
<defs>
<clipPath id="clip0_1_1103">
<rect width="22" height="22" fill="white"/>
</clipPath>
</defs>
</svg>
