<svg width="46" height="45" viewBox="0 0 46 45" fill="none" xmlns="http://www.w3.org/2000/svg">
<path d="M22.3714 0C10.9304 8.16035e-07 11.6449 4.96151 11.6449 4.96151L11.6576 10.1016H22.5755V11.6449H7.32109C7.32109 11.6449 0 10.8146 0 22.3587C-8.16e-07 33.9027 6.39001 33.4933 6.39001 33.4933H10.2036V28.1365C10.2036 28.1365 9.99804 21.7464 16.4916 21.7464H27.3202C27.3202 21.7464 33.4041 21.8448 33.4041 15.8666V5.98187C33.4041 5.98186 34.3278 0 22.3714 0ZM16.3513 3.45647C17.4375 3.45647 18.3155 4.33442 18.3155 5.42067C18.3155 6.50691 17.4375 7.38486 16.3513 7.38486C15.265 7.38486 14.3871 6.50691 14.3871 5.42067C14.3871 4.33442 15.265 3.45647 16.3513 3.45647Z" fill="#5766F3"/>
<path d="M22.6963 44.8331C34.1373 44.8331 33.4228 39.8716 33.4228 39.8716L33.4101 34.7315H22.4922V33.1882H37.7466C37.7466 33.1882 45.0677 34.0185 45.0677 22.4744C45.0677 10.9303 38.6777 11.3397 38.6777 11.3397H34.8641V16.6966C34.8641 16.6966 35.0697 23.0866 28.5761 23.0866H17.7475C17.7475 23.0866 11.6636 22.9883 11.6636 28.9665V38.8512C11.6636 38.8512 10.7399 44.8331 22.6963 44.8331ZM28.7164 41.3766C27.6302 41.3766 26.7522 40.4986 26.7522 39.4124C26.7522 38.3262 27.6302 37.4482 28.7164 37.4482C29.8027 37.4482 30.6806 38.3262 30.6806 39.4124C30.6806 40.4986 29.8027 41.3766 28.7164 41.3766Z" fill="#70CFCB"/>
</svg>
