<svg width="22" height="20" viewBox="0 0 22 20" fill="none" xmlns="http://www.w3.org/2000/svg">
<g clip-path="url(#clip0_1_1089)">
<path d="M18.0884 6.47576C17.8602 6.39557 17.6237 6.31971 17.3802 6.24796C17.4202 6.08124 17.457 5.91667 17.4896 5.75491C18.0257 3.09867 17.6752 0.958794 16.4783 0.254254C15.3306 -0.421307 13.4536 0.283073 11.558 1.967C11.3757 2.12892 11.1929 2.30036 11.0102 2.48003C10.8884 2.36116 10.7669 2.24628 10.6456 2.1364C8.65895 0.335836 6.66761 -0.422946 5.47186 0.283633C4.32527 0.961152 3.98571 2.97284 4.46828 5.49018C4.51488 5.73332 4.56935 5.98163 4.63095 6.23409C4.34912 6.31575 4.07703 6.40281 3.8167 6.49542C1.48752 7.32431 0 8.62339 0 9.97088C0 11.3626 1.59685 12.7585 4.02288 13.6049C4.21433 13.6716 4.41299 13.7348 4.61771 13.7948C4.55126 14.0678 4.49346 14.3354 4.44494 14.5964C3.98481 17.07 4.34414 19.0342 5.48768 19.7074C6.66886 20.4027 8.6512 19.688 10.5815 17.9657C10.7341 17.8296 10.8872 17.6852 11.0406 17.5339C11.2394 17.7293 11.4379 17.9142 11.6353 18.0877C13.505 19.73 15.3517 20.3932 16.4942 19.7181C17.6742 19.0208 18.0577 16.9108 17.5598 14.3437C17.5218 14.1476 17.4775 13.9473 17.4278 13.7435C17.567 13.7015 17.7037 13.6581 17.837 13.613C20.3591 12.7601 22 11.3812 22 9.97088C22 8.61852 20.4645 7.31068 18.0884 6.47576ZM17.5414 12.7024C17.4211 12.7431 17.2977 12.7824 17.1719 12.8205C16.8935 11.9207 16.5177 10.964 16.0578 9.97555C16.4967 9.01064 16.8579 8.06615 17.1285 7.17226C17.3536 7.23874 17.572 7.30885 17.7825 7.38283C19.8183 8.09821 21.0602 9.15589 21.0602 9.97088C21.0602 10.839 19.719 11.9659 17.5414 12.7024ZM16.6378 14.53C16.858 15.6652 16.8894 16.6915 16.7436 17.4938C16.6126 18.2147 16.3491 18.6954 16.0233 18.8879C15.3299 19.2975 13.8473 18.765 12.2483 17.3605C12.0649 17.1995 11.8803 17.0276 11.6951 16.8456C12.315 16.1536 12.9345 15.3491 13.5392 14.4556C14.6027 14.3593 15.6075 14.2018 16.5187 13.9868C16.5636 14.1716 16.6035 14.3528 16.6378 14.53ZM7.5003 18.8171C6.82291 19.0613 6.28341 19.0683 5.95729 18.8763C5.26334 18.4678 4.97485 16.8907 5.36836 14.7753C5.41344 14.533 5.46709 14.2841 5.52892 14.0298C6.43014 14.2332 7.42758 14.3795 8.49366 14.4678C9.1024 15.3421 9.73984 16.1457 10.3822 16.8494C10.2419 16.9877 10.1021 17.1193 9.96305 17.2434C9.10949 18.005 8.25412 18.5453 7.5003 18.8171ZM4.32683 12.6971C3.25409 12.3228 2.36818 11.8364 1.76093 11.3056C1.21528 10.8287 0.939794 10.3551 0.939794 9.97088C0.939794 9.15318 2.13413 8.1102 4.12606 7.4013C4.36776 7.31528 4.62077 7.23422 4.88333 7.15807C5.15863 8.07214 5.51976 9.02783 5.95556 9.99422C5.51412 10.975 5.14786 11.9459 4.86986 12.8707C4.68268 12.8157 4.50133 12.7579 4.32683 12.6971ZM5.39061 5.30595C4.97716 3.14916 5.25175 1.52215 5.94272 1.11388C6.67873 0.678952 8.30624 1.29907 10.0216 2.85377C10.1312 2.95314 10.2413 3.05714 10.3517 3.16475C9.71251 3.86533 9.0809 4.66292 8.47757 5.53207C7.44289 5.62996 6.45246 5.78721 5.54184 5.99778C5.48459 5.7627 5.43388 5.53175 5.39061 5.30595ZM14.8804 7.69781C14.6627 7.314 14.4392 6.93927 14.2114 6.57477C14.9133 6.66534 15.5859 6.78558 16.2174 6.93271C16.0278 7.55299 15.7915 8.20153 15.5133 8.86638C15.3138 8.47966 15.1027 8.08973 14.8804 7.69781ZM11.0105 3.85034C11.444 4.32972 11.8781 4.86494 12.3051 5.44565C11.8748 5.4249 11.4392 5.41411 11 5.41411C10.5649 5.41411 10.1325 5.42466 9.70491 5.44505C10.1323 4.86974 10.5702 4.33524 11.0105 3.85034ZM7.11579 7.70444C6.89833 8.08933 6.69118 8.47714 6.49475 8.86566C6.22107 8.20313 5.98693 7.55163 5.79568 6.92256C6.42337 6.77918 7.09272 6.66195 7.7902 6.57309C7.55915 6.94095 7.33383 7.31852 7.11579 7.70444ZM7.81029 13.4371C7.08967 13.355 6.41025 13.2438 5.78271 13.1044C5.97702 12.4641 6.21633 11.7987 6.49581 11.1219C6.69275 11.5101 6.90072 11.8981 7.11951 12.2838C7.34237 12.6768 7.57329 13.0617 7.81029 13.4371ZM11.0365 16.159C10.5911 15.6685 10.1467 15.1258 9.71282 14.5421C10.1341 14.559 10.5635 14.5676 11 14.5676C11.4484 14.5676 11.8917 14.5573 12.328 14.5375C11.8996 15.1317 11.4671 15.6752 11.0365 16.159ZM15.5223 11.0874C15.8163 11.7715 16.0642 12.4334 16.261 13.0628C15.6232 13.2114 14.9345 13.331 14.2088 13.4199C14.4372 13.0505 14.6626 12.6693 14.8842 12.2772C15.1083 11.8806 15.3211 11.4833 15.5223 11.0874ZM14.0701 11.798C13.7262 12.4066 13.3731 12.9877 13.0147 13.5361C12.3619 13.5838 11.6874 13.6083 11 13.6083C10.3154 13.6083 9.64942 13.5866 9.00814 13.5441C8.63526 12.9885 8.27452 12.4057 7.93282 11.8032C7.59201 11.2024 7.27842 10.5964 6.9942 9.9939C7.27834 9.38997 7.59119 8.78336 7.93004 8.18359L7.92996 8.18371C8.26971 7.58233 8.62727 7.00242 8.99671 6.45025C9.65099 6.39977 10.3219 6.37343 11 6.37343C11.6811 6.37343 12.3529 6.39997 13.007 6.45089C13.3708 6.99903 13.7259 7.57705 14.067 8.17851C14.4119 8.78672 14.7288 9.38929 15.0154 9.98027C14.7297 10.5814 14.4135 11.1901 14.0701 11.798ZM16.0088 1.08534C16.7456 1.519 17.032 3.26791 16.5692 5.56129C16.5396 5.70762 16.5064 5.85668 16.4703 6.00773C15.5576 5.79276 14.5664 5.6328 13.5287 5.53343C12.9242 4.65473 12.2978 3.8559 11.669 3.16431C11.8381 2.99831 12.0069 2.84002 12.175 2.69064C13.7992 1.24787 15.3172 0.678233 16.0088 1.08534ZM11 7.96562C12.085 7.96562 12.9645 8.86338 12.9645 9.97088C12.9645 11.0783 12.085 11.9761 11 11.9761C9.91504 11.9761 9.03547 11.0783 9.03547 9.97088C9.03547 8.86338 9.91504 7.96562 11 7.96562Z" fill="white"/>
</g>
<defs>
<clipPath id="clip0_1_1089">
<rect width="22" height="20" fill="white"/>
</clipPath>
</defs>
</svg>
