<svg width="28" height="29" viewBox="0 0 28 29" fill="none" xmlns="http://www.w3.org/2000/svg">
<path d="M13.4167 25.875C6.82504 25.875 1.45837 20.5083 1.45837 13.9167C1.45837 7.325 6.82504 1.95833 13.4167 1.95833C20.0084 1.95833 25.375 7.325 25.375 13.9167C25.375 20.5083 20.0084 25.875 13.4167 25.875ZM13.4167 3.70833C7.78171 3.70833 3.20837 8.29333 3.20837 13.9167C3.20837 19.54 7.78171 24.125 13.4167 24.125C19.0517 24.125 23.625 19.54 23.625 13.9167C23.625 8.29333 19.0517 3.70833 13.4167 3.70833Z" fill="white"/>
<path d="M25.6667 27.0417C25.4451 27.0417 25.2234 26.96 25.0484 26.785L22.7151 24.4517C22.3767 24.1133 22.3767 23.5533 22.7151 23.215C23.0534 22.8767 23.6134 22.8767 23.9517 23.215L26.2851 25.5483C26.6234 25.8867 26.6234 26.4467 26.2851 26.785C26.1101 26.96 25.8884 27.0417 25.6667 27.0417Z" fill="white"/>
</svg>
