<svg width="28" height="28" viewBox="0 0 28 28" fill="none" xmlns="http://www.w3.org/2000/svg">
<path d="M14.1862 13.5566C14.1512 13.5566 14.1279 13.5566 14.0929 13.5566C14.0346 13.545 13.9529 13.545 13.8829 13.5566C10.4996 13.4516 7.94458 10.7916 7.94458 7.51331C7.94458 4.17665 10.6629 1.45831 13.9996 1.45831C17.3362 1.45831 20.0546 4.17665 20.0546 7.51331C20.0429 10.7916 17.4762 13.4516 14.2212 13.5566C14.2096 13.5566 14.1979 13.5566 14.1862 13.5566ZM13.9996 3.20831C11.6312 3.20831 9.69458 5.14498 9.69458 7.51331C9.69458 9.84665 11.5146 11.725 13.8362 11.8066C13.8946 11.795 14.0579 11.795 14.2096 11.8066C16.4962 11.7016 18.2929 9.82331 18.3046 7.51331C18.3046 5.14498 16.3679 3.20831 13.9996 3.20831Z" fill="#5B5B71"/>
<path d="M14.1979 26.3084C11.9112 26.3084 9.61288 25.725 7.87454 24.5584C6.25288 23.485 5.36621 22.015 5.36621 20.4167C5.36621 18.8184 6.25288 17.3367 7.87454 16.2517C11.3745 13.93 17.0445 13.93 20.5212 16.2517C22.1312 17.325 23.0295 18.795 23.0295 20.3934C23.0295 21.9917 22.1429 23.4734 20.5212 24.5584C18.7712 25.725 16.4845 26.3084 14.1979 26.3084ZM8.84288 17.7217C7.72288 18.4684 7.11621 19.425 7.11621 20.4284C7.11621 21.42 7.73454 22.3767 8.84288 23.1117C11.7479 25.06 16.6479 25.06 19.5529 23.1117C20.6729 22.365 21.2795 21.4084 21.2795 20.405C21.2795 19.4134 20.6612 18.4567 19.5529 17.7217C16.6479 15.785 11.7479 15.785 8.84288 17.7217Z" fill="#5B5B71"/>
</svg>
